<svg width="48" height="48" viewBox="0 0 48 48" fill="none" xmlns="http://www.w3.org/2000/svg">
<circle cx="24" cy="24" r="24" fill="#29BB6A"/>
<path d="M33.0924 19.6666H34.3756C35.0166 19.6666 35.6313 19.9212 36.0845 20.3745C36.5377 20.8277 36.7923 21.4424 36.7923 22.0833V26.9166C36.7923 27.5576 36.5377 28.1723 36.0845 28.6255C35.6313 29.0787 35.0166 29.3333 34.3756 29.3333H33.0924C32.7978 31.6694 31.6608 33.8176 29.8948 35.375C28.1288 36.9323 25.8552 37.7916 23.5007 37.7916V35.375C25.4235 35.375 27.2675 34.6111 28.6272 33.2515C29.9868 31.8918 30.7507 30.0478 30.7507 28.125V20.875C30.7507 18.9521 29.9868 17.1081 28.6272 15.7484C27.2675 14.3888 25.4235 13.625 23.5007 13.625C21.5778 13.625 19.7338 14.3888 18.3741 15.7484C17.0145 17.1081 16.2507 18.9521 16.2507 20.875V29.3333H12.6257C11.9847 29.3333 11.37 29.0787 10.9168 28.6255C10.4636 28.1723 10.209 27.5576 10.209 26.9166V22.0833C10.209 21.4424 10.4636 20.8277 10.9168 20.3745C11.37 19.9212 11.9847 19.6666 12.6257 19.6666H13.9089C14.2038 17.3308 15.3409 15.1828 17.1068 13.6258C18.8728 12.0687 21.1463 11.2096 23.5007 11.2096C25.855 11.2096 28.1285 12.0687 29.8945 13.6258C31.6604 15.1828 32.7975 17.3308 33.0924 19.6666ZM12.6257 22.0833V26.9166H13.834V22.0833H12.6257ZM33.1673 22.0833V26.9166H34.3756V22.0833H33.1673ZM18.3773 29.0735L19.6581 27.0242C20.8098 27.7456 22.1417 28.1272 23.5007 28.125C24.8596 28.1272 26.1915 27.7456 27.3432 27.0242L28.624 29.0735C27.0885 30.0355 25.3126 30.5444 23.5007 30.5416C21.6887 30.5444 19.9128 30.0355 18.3773 29.0735Z" fill="white"/>
</svg>
