<svg width="25" height="27" viewBox="0 0 25 27" fill="none" xmlns="http://www.w3.org/2000/svg">
<path opacity="0.4" fill-rule="evenodd" clip-rule="evenodd" d="M24.1239 11.2643H0.876745C0.753495 12.2551 0.689453 13.3342 0.689453 14.5292C0.689453 23.2473 3.78037 26.3382 12.4997 26.3382C21.2202 26.3382 24.3112 23.2473 24.3112 14.5292C24.3112 13.3342 24.2471 12.2551 24.1239 11.2643Z" fill="#29BB6A"/>
<path d="M16.9203 15.1152C16.9203 15.6155 17.3312 16.0215 17.8314 16.0215C18.3317 16.0215 18.7377 15.6155 18.7377 15.1152C18.7377 14.615 18.3317 14.209 17.8314 14.209H17.8206C17.3203 14.209 16.9203 14.615 16.9203 15.1152Z" fill="#29BB6A"/>
<path d="M16.9203 19.7709C16.9203 20.2712 17.3312 20.6772 17.8314 20.6772C18.3317 20.6772 18.7377 20.2712 18.7377 19.7709C18.7377 19.2695 18.3317 18.8647 17.8314 18.8647H17.8206C17.3203 18.8647 16.9203 19.2695 16.9203 19.7709Z" fill="#29BB6A"/>
<path d="M11.6037 15.1152C11.6037 15.6155 12.0157 16.0215 12.516 16.0215C13.0162 16.0215 13.4222 15.6155 13.4222 15.1152C13.4222 14.615 13.0162 14.209 12.516 14.209H12.5051C12.0048 14.209 11.6037 14.615 11.6037 15.1152Z" fill="#29BB6A"/>
<path d="M11.6037 19.7709C11.6037 20.2712 12.0157 20.6772 12.516 20.6772C13.0162 20.6772 13.4222 20.2712 13.4222 19.7709C13.4222 19.2695 13.0162 18.8647 12.516 18.8647H12.5051C12.0048 18.8647 11.6037 19.2695 11.6037 19.7709Z" fill="#29BB6A"/>
<path d="M6.27734 15.1152C6.27734 15.6155 6.68939 16.0215 7.18964 16.0215C7.68989 16.0215 8.09589 15.6155 8.09589 15.1152C8.09589 14.615 7.68989 14.209 7.18964 14.209H7.17876C6.67851 14.209 6.27734 14.615 6.27734 15.1152Z" fill="#29BB6A"/>
<path d="M6.27734 19.7709C6.27734 20.2712 6.68939 20.6772 7.18964 20.6772C7.68989 20.6772 8.09589 20.2712 8.09589 19.7709C8.09589 19.2695 7.68989 18.8647 7.18964 18.8647H7.17876C6.67851 18.8647 6.27734 19.2695 6.27734 19.7709Z" fill="#29BB6A"/>
<path fill-rule="evenodd" clip-rule="evenodd" d="M18.4855 3.50507V1.56812C18.4855 1.06787 18.0795 0.661865 17.5792 0.661865C17.079 0.661865 16.673 1.06787 16.673 1.56812V5.51091C16.673 5.82507 16.8433 6.0897 17.0874 6.25162C16.9436 6.34828 16.7805 6.41716 16.5944 6.41716C16.0942 6.41716 15.6882 6.01116 15.6882 5.51091V2.89366C14.7191 2.77766 13.663 2.71845 12.4994 2.71845C11.1291 2.71845 9.90749 2.80062 8.80912 2.96616V1.56812C8.80912 1.06787 8.40312 0.661865 7.90287 0.661865C7.40262 0.661865 6.99662 1.06787 6.99662 1.56812V5.51091C6.99662 5.82507 7.16699 6.0897 7.41108 6.25162C7.26729 6.34828 7.10416 6.41716 6.91808 6.41716C6.41783 6.41716 6.01183 6.01116 6.01183 5.51091V3.66216C3.43324 4.65662 1.92041 6.50657 1.20508 9.45249H23.7949C23.036 6.32774 21.3589 4.45241 18.4855 3.50507Z" fill="#29BB6A"/>
</svg>
