<svg width="23" height="23" viewBox="0 0 23 23" fill="none" xmlns="http://www.w3.org/2000/svg">
<path opacity="0.4" d="M15.4054 1.9165H18.6503C19.9941 1.9165 21.083 3.01461 21.083 4.3698V7.64209C21.083 8.99728 19.9941 10.0954 18.6503 10.0954H15.4054C14.0616 10.0954 12.9727 8.99728 12.9727 7.64209V4.3698C12.9727 3.01461 14.0616 1.9165 15.4054 1.9165Z" fill="#13263C"/>
<path fill-rule="evenodd" clip-rule="evenodd" d="M4.34926 1.9165H7.59414C8.93798 1.9165 10.0269 3.01461 10.0269 4.3698V7.64209C10.0269 8.99728 8.93798 10.0954 7.59414 10.0954H4.34926C3.00542 10.0954 1.9165 8.99728 1.9165 7.64209V4.3698C1.9165 3.01461 3.00542 1.9165 4.34926 1.9165ZM4.34926 12.9043H7.59414C8.93798 12.9043 10.0269 14.0024 10.0269 15.3576V18.6299C10.0269 19.9841 8.93798 21.0832 7.59414 21.0832H4.34926C3.00542 21.0832 1.9165 19.9841 1.9165 18.6299V15.3576C1.9165 14.0024 3.00542 12.9043 4.34926 12.9043ZM18.6504 12.9043H15.4055C14.0617 12.9043 12.9728 14.0024 12.9728 15.3576V18.6299C12.9728 19.9841 14.0617 21.0832 15.4055 21.0832H18.6504C19.9943 21.0832 21.0832 19.9841 21.0832 18.6299V15.3576C21.0832 14.0024 19.9943 12.9043 18.6504 12.9043Z" fill="#13263C"/>
</svg>
