<svg width="27" height="30" viewBox="0 0 27 30" fill="none" xmlns="http://www.w3.org/2000/svg">
<path d="M24.02 0H8.58506C7.27902 0 6.21045 1.10319 6.21045 2.45152V3.67729H20.4581C21.7642 3.67729 22.8327 4.78047 22.8327 6.12881V23.2895H24.02C25.3261 23.2895 26.3947 22.1863 26.3947 20.8379V2.45152C26.3947 1.10319 25.3261 0 24.02 0Z" fill="#29BB6A" fill-opacity="0.35"/>
<path d="M20.1842 8.66197C20.1842 7.31363 19.1156 6.21045 17.8096 6.21045H2.37461C1.06858 6.21045 0 7.31363 0 8.66197V27.0484C0 28.3967 1.06858 29.4999 2.37461 29.4999H17.8096C19.1156 29.4999 20.1842 28.3967 20.1842 27.0484V8.66197ZM9.49845 12.9521C9.49845 13.3199 9.26099 13.565 8.9048 13.565H4.15557C3.79938 13.565 3.56192 13.3199 3.56192 12.9521V11.7264C3.56192 11.3586 3.79938 11.1135 4.15557 11.1135H8.9048C9.26099 11.1135 9.49845 11.3586 9.49845 11.7264V12.9521ZM14.2477 22.7582C14.2477 23.126 14.0102 23.3711 13.654 23.3711H4.15557C3.79938 23.3711 3.56192 23.126 3.56192 22.7582V21.5325C3.56192 21.1647 3.79938 20.9196 4.15557 20.9196H13.654C14.0102 20.9196 14.2477 21.1647 14.2477 21.5325V22.7582ZM16.6223 17.8552C16.6223 18.2229 16.3848 18.4681 16.0286 18.4681H4.15557C3.79938 18.4681 3.56192 18.2229 3.56192 17.8552V16.6294C3.56192 16.2617 3.79938 16.0165 4.15557 16.0165H16.0286C16.3848 16.0165 16.6223 16.2617 16.6223 16.6294V17.8552Z" fill="#08AC54"/>
</svg>
