<svg width="612" height="88" viewBox="0 0 612 88" fill="none" xmlns="http://www.w3.org/2000/svg">
<rect x="2.5" y="2.55859" width="607" height="82.9414" stroke="#08AC54" stroke-width="5" stroke-dasharray="41 41"/>
<rect x="47.7207" width="527.442" height="7" fill="#F7F8FB"/>
<rect x="43.5347" y="81" width="520.744" height="7" fill="#F7F8FB"/>
<path d="M76.3906 19.0312L70.8438 37H64.9531L73.3125 14.25H77.0469L76.3906 19.0312ZM80.9844 37L75.4219 19.0312L74.7031 14.25H78.4844L86.8906 37H80.9844ZM80.7656 28.5156V32.75H69.0938V28.5156H80.7656ZM94.3906 14.25V37H88.9219V14.25H94.3906ZM113.109 33.25C113.599 33.25 114.016 33.1615 114.359 32.9844C114.714 32.7969 114.979 32.5365 115.156 32.2031C115.344 31.8594 115.432 31.4479 115.422 30.9688H120.375C120.385 32.2396 120.073 33.3542 119.438 34.3125C118.812 35.2604 117.958 36 116.875 36.5312C115.802 37.0521 114.589 37.3125 113.234 37.3125C111.911 37.3125 110.755 37.099 109.766 36.6719C108.776 36.2344 107.948 35.6302 107.281 34.8594C106.625 34.0781 106.13 33.1667 105.797 32.125C105.474 31.0833 105.312 29.9531 105.312 28.7344V28.375C105.312 27.1562 105.474 26.026 105.797 24.9844C106.13 23.9323 106.625 23.0208 107.281 22.25C107.948 21.4688 108.771 20.8646 109.75 20.4375C110.74 20 111.891 19.7812 113.203 19.7812C114.609 19.7812 115.849 20.0469 116.922 20.5781C118.005 21.1094 118.854 21.8802 119.469 22.8906C120.083 23.901 120.385 25.125 120.375 26.5625H115.422C115.432 26.0521 115.354 25.5938 115.188 25.1875C115.021 24.7812 114.76 24.4583 114.406 24.2188C114.062 23.9688 113.62 23.8438 113.078 23.8438C112.536 23.8438 112.099 23.9635 111.766 24.2031C111.432 24.4427 111.177 24.776 111 25.2031C110.833 25.6198 110.719 26.099 110.656 26.6406C110.604 27.1823 110.578 27.7604 110.578 28.375V28.7344C110.578 29.3594 110.604 29.9479 110.656 30.5C110.719 31.0417 110.839 31.5208 111.016 31.9375C111.193 32.3438 111.448 32.6667 111.781 32.9062C112.115 33.1354 112.557 33.25 113.109 33.25ZM121.969 28.7188V28.3906C121.969 27.151 122.146 26.0104 122.5 24.9688C122.854 23.9167 123.375 23.0052 124.062 22.2344C124.75 21.4635 125.599 20.8646 126.609 20.4375C127.62 20 128.786 19.7812 130.109 19.7812C131.443 19.7812 132.615 20 133.625 20.4375C134.646 20.8646 135.5 21.4635 136.188 22.2344C136.875 23.0052 137.396 23.9167 137.75 24.9688C138.104 26.0104 138.281 27.151 138.281 28.3906V28.7188C138.281 29.9479 138.104 31.0885 137.75 32.1406C137.396 33.1823 136.875 34.0938 136.188 34.875C135.5 35.6458 134.651 36.2448 133.641 36.6719C132.63 37.099 131.464 37.3125 130.141 37.3125C128.818 37.3125 127.646 37.099 126.625 36.6719C125.604 36.2448 124.75 35.6458 124.062 34.875C123.375 34.0938 122.854 33.1823 122.5 32.1406C122.146 31.0885 121.969 29.9479 121.969 28.7188ZM127.234 28.3906V28.7188C127.234 29.3542 127.281 29.9479 127.375 30.5C127.469 31.0521 127.625 31.5365 127.844 31.9531C128.062 32.3594 128.359 32.6771 128.734 32.9062C129.109 33.1354 129.578 33.25 130.141 33.25C130.693 33.25 131.151 33.1354 131.516 32.9062C131.891 32.6771 132.188 32.3594 132.406 31.9531C132.625 31.5365 132.781 31.0521 132.875 30.5C132.969 29.9479 133.016 29.3542 133.016 28.7188V28.3906C133.016 27.776 132.969 27.1979 132.875 26.6562C132.781 26.1042 132.625 25.6198 132.406 25.2031C132.188 24.776 131.891 24.4427 131.516 24.2031C131.141 23.9635 130.672 23.8438 130.109 23.8438C129.557 23.8438 129.094 23.9635 128.719 24.2031C128.354 24.4427 128.062 24.776 127.844 25.2031C127.625 25.6198 127.469 26.1042 127.375 26.6562C127.281 27.1979 127.234 27.776 127.234 28.3906ZM145.938 23.3438V43.5H140.672V20.0938H145.578L145.938 23.3438ZM156.312 28.3438V28.6719C156.312 29.901 156.172 31.0417 155.891 32.0938C155.609 33.1458 155.193 34.0625 154.641 34.8438C154.089 35.625 153.401 36.2344 152.578 36.6719C151.766 37.099 150.823 37.3125 149.75 37.3125C148.74 37.3125 147.87 37.0885 147.141 36.6406C146.411 36.1927 145.802 35.5729 145.312 34.7812C144.823 33.9896 144.427 33.0833 144.125 32.0625C143.823 31.0417 143.583 29.9635 143.406 28.8281V28.4062C143.583 27.1875 143.823 26.0573 144.125 25.0156C144.427 23.9635 144.823 23.0469 145.312 22.2656C145.802 21.4844 146.406 20.875 147.125 20.4375C147.854 20 148.724 19.7812 149.734 19.7812C150.807 19.7812 151.75 19.9844 152.562 20.3906C153.385 20.7969 154.073 21.3802 154.625 22.1406C155.188 22.8906 155.609 23.7917 155.891 24.8438C156.172 25.8958 156.312 27.0625 156.312 28.3438ZM151.047 28.6719V28.3438C151.047 27.6875 151 27.0885 150.906 26.5469C150.812 25.9948 150.661 25.5156 150.453 25.1094C150.255 24.7031 149.99 24.3906 149.656 24.1719C149.323 23.9531 148.911 23.8438 148.422 23.8438C147.859 23.8438 147.385 23.9323 147 24.1094C146.625 24.276 146.323 24.5365 146.094 24.8906C145.875 25.2344 145.719 25.6667 145.625 26.1875C145.542 26.6979 145.505 27.2969 145.516 27.9844V29.2656C145.495 30.0573 145.573 30.7552 145.75 31.3594C145.927 31.9531 146.234 32.4167 146.672 32.75C147.109 33.0833 147.703 33.25 148.453 33.25C148.953 33.25 149.37 33.1354 149.703 32.9062C150.036 32.6667 150.302 32.3385 150.5 31.9219C150.698 31.4948 150.839 31.0052 150.922 30.4531C151.005 29.901 151.047 29.3073 151.047 28.6719ZM164.219 20.0938V37H158.938V20.0938H164.219ZM158.625 15.7344C158.625 14.9844 158.896 14.3698 159.438 13.8906C159.979 13.4115 160.682 13.1719 161.547 13.1719C162.411 13.1719 163.115 13.4115 163.656 13.8906C164.198 14.3698 164.469 14.9844 164.469 15.7344C164.469 16.4844 164.198 17.099 163.656 17.5781C163.115 18.0573 162.411 18.2969 161.547 18.2969C160.682 18.2969 159.979 18.0573 159.438 17.5781C158.896 17.099 158.625 16.4844 158.625 15.7344ZM173.031 13V37H167.75V13H173.031ZM175.625 28.7188V28.3906C175.625 27.151 175.802 26.0104 176.156 24.9688C176.51 23.9167 177.031 23.0052 177.719 22.2344C178.406 21.4635 179.255 20.8646 180.266 20.4375C181.276 20 182.443 19.7812 183.766 19.7812C185.099 19.7812 186.271 20 187.281 20.4375C188.302 20.8646 189.156 21.4635 189.844 22.2344C190.531 23.0052 191.052 23.9167 191.406 24.9688C191.76 26.0104 191.938 27.151 191.938 28.3906V28.7188C191.938 29.9479 191.76 31.0885 191.406 32.1406C191.052 33.1823 190.531 34.0938 189.844 34.875C189.156 35.6458 188.307 36.2448 187.297 36.6719C186.286 37.099 185.12 37.3125 183.797 37.3125C182.474 37.3125 181.302 37.099 180.281 36.6719C179.26 36.2448 178.406 35.6458 177.719 34.875C177.031 34.0938 176.51 33.1823 176.156 32.1406C175.802 31.0885 175.625 29.9479 175.625 28.7188ZM180.891 28.3906V28.7188C180.891 29.3542 180.938 29.9479 181.031 30.5C181.125 31.0521 181.281 31.5365 181.5 31.9531C181.719 32.3594 182.016 32.6771 182.391 32.9062C182.766 33.1354 183.234 33.25 183.797 33.25C184.349 33.25 184.807 33.1354 185.172 32.9062C185.547 32.6771 185.844 32.3594 186.062 31.9531C186.281 31.5365 186.438 31.0521 186.531 30.5C186.625 29.9479 186.672 29.3542 186.672 28.7188V28.3906C186.672 27.776 186.625 27.1979 186.531 26.6562C186.438 26.1042 186.281 25.6198 186.062 25.2031C185.844 24.776 185.547 24.4427 185.172 24.2031C184.797 23.9635 184.328 23.8438 183.766 23.8438C183.214 23.8438 182.75 23.9635 182.375 24.2031C182.01 24.4427 181.719 24.776 181.5 25.2031C181.281 25.6198 181.125 26.1042 181.031 26.6562C180.938 27.1979 180.891 27.776 180.891 28.3906ZM203.188 20.0938V23.75H193V20.0938H203.188ZM195.141 15.8906H200.406V31.4844C200.406 31.9323 200.458 32.2812 200.562 32.5312C200.667 32.7708 200.844 32.9427 201.094 33.0469C201.354 33.1406 201.698 33.1875 202.125 33.1875C202.427 33.1875 202.677 33.1823 202.875 33.1719C203.073 33.151 203.26 33.125 203.438 33.0938V36.8594C202.99 37.0052 202.521 37.1146 202.031 37.1875C201.542 37.2708 201.021 37.3125 200.469 37.3125C199.344 37.3125 198.38 37.1354 197.578 36.7812C196.786 36.4271 196.182 35.8698 195.766 35.1094C195.349 34.349 195.141 33.3594 195.141 32.1406V15.8906ZM219.703 37H214.406V18.7188C214.406 17.4062 214.672 16.3021 215.203 15.4062C215.734 14.5104 216.484 13.8333 217.453 13.375C218.422 12.9062 219.568 12.6719 220.891 12.6719C221.349 12.6719 221.781 12.7031 222.188 12.7656C222.594 12.8281 222.99 12.9062 223.375 13L223.391 16.875C223.203 16.8229 223.01 16.7865 222.812 16.7656C222.615 16.7448 222.37 16.7344 222.078 16.7344C221.568 16.7344 221.135 16.8125 220.781 16.9688C220.427 17.1146 220.156 17.3385 219.969 17.6406C219.792 17.9323 219.703 18.2917 219.703 18.7188V37ZM222.984 20.0938V23.75H211.969V20.0938H222.984ZM224.219 28.7188V28.3906C224.219 27.151 224.396 26.0104 224.75 24.9688C225.104 23.9167 225.625 23.0052 226.312 22.2344C227 21.4635 227.849 20.8646 228.859 20.4375C229.87 20 231.036 19.7812 232.359 19.7812C233.693 19.7812 234.865 20 235.875 20.4375C236.896 20.8646 237.75 21.4635 238.438 22.2344C239.125 23.0052 239.646 23.9167 240 24.9688C240.354 26.0104 240.531 27.151 240.531 28.3906V28.7188C240.531 29.9479 240.354 31.0885 240 32.1406C239.646 33.1823 239.125 34.0938 238.438 34.875C237.75 35.6458 236.901 36.2448 235.891 36.6719C234.88 37.099 233.714 37.3125 232.391 37.3125C231.068 37.3125 229.896 37.099 228.875 36.6719C227.854 36.2448 227 35.6458 226.312 34.875C225.625 34.0938 225.104 33.1823 224.75 32.1406C224.396 31.0885 224.219 29.9479 224.219 28.7188ZM229.484 28.3906V28.7188C229.484 29.3542 229.531 29.9479 229.625 30.5C229.719 31.0521 229.875 31.5365 230.094 31.9531C230.312 32.3594 230.609 32.6771 230.984 32.9062C231.359 33.1354 231.828 33.25 232.391 33.25C232.943 33.25 233.401 33.1354 233.766 32.9062C234.141 32.6771 234.438 32.3594 234.656 31.9531C234.875 31.5365 235.031 31.0521 235.125 30.5C235.219 29.9479 235.266 29.3542 235.266 28.7188V28.3906C235.266 27.776 235.219 27.1979 235.125 26.6562C235.031 26.1042 234.875 25.6198 234.656 25.2031C234.438 24.776 234.141 24.4427 233.766 24.2031C233.391 23.9635 232.922 23.8438 232.359 23.8438C231.807 23.8438 231.344 23.9635 230.969 24.2031C230.604 24.4427 230.312 24.776 230.094 25.2031C229.875 25.6198 229.719 26.1042 229.625 26.6562C229.531 27.1979 229.484 27.776 229.484 28.3906ZM248.188 24.2812V37H242.922V20.0938H247.844L248.188 24.2812ZM253.188 19.9688L253.094 24.8594C252.885 24.8385 252.604 24.8125 252.25 24.7812C251.896 24.75 251.599 24.7344 251.359 24.7344C250.745 24.7344 250.214 24.8073 249.766 24.9531C249.328 25.0885 248.964 25.2969 248.672 25.5781C248.391 25.849 248.182 26.1927 248.047 26.6094C247.922 27.026 247.865 27.5104 247.875 28.0625L246.922 27.4375C246.922 26.3021 247.031 25.2708 247.25 24.3438C247.479 23.4062 247.802 22.599 248.219 21.9219C248.635 21.2344 249.141 20.7083 249.734 20.3438C250.328 19.9688 250.995 19.7812 251.734 19.7812C251.995 19.7812 252.25 19.7969 252.5 19.8281C252.76 19.8594 252.99 19.9062 253.188 19.9688ZM276.156 29.2969H281.625C281.552 30.8802 281.125 32.276 280.344 33.4844C279.562 34.6927 278.479 35.6354 277.094 36.3125C275.719 36.9792 274.094 37.3125 272.219 37.3125C270.698 37.3125 269.339 37.0573 268.141 36.5469C266.953 36.0365 265.943 35.3021 265.109 34.3438C264.286 33.3854 263.656 32.224 263.219 30.8594C262.792 29.4948 262.578 27.9583 262.578 26.25V25.0156C262.578 23.3073 262.802 21.7708 263.25 20.4062C263.708 19.0312 264.354 17.8646 265.188 16.9062C266.031 15.9375 267.042 15.1979 268.219 14.6875C269.396 14.1771 270.703 13.9219 272.141 13.9219C274.12 13.9219 275.792 14.276 277.156 14.9844C278.521 15.6927 279.578 16.6667 280.328 17.9062C281.078 19.1354 281.521 20.5365 281.656 22.1094H276.188C276.167 21.2552 276.021 20.5417 275.75 19.9688C275.479 19.3854 275.052 18.9479 274.469 18.6562C273.885 18.3646 273.109 18.2188 272.141 18.2188C271.464 18.2188 270.875 18.3438 270.375 18.5938C269.875 18.8438 269.458 19.2396 269.125 19.7812C268.792 20.3229 268.542 21.026 268.375 21.8906C268.219 22.7448 268.141 23.776 268.141 24.9844V26.25C268.141 27.4583 268.214 28.4896 268.359 29.3438C268.505 30.1979 268.74 30.8958 269.062 31.4375C269.385 31.9792 269.802 32.3802 270.312 32.6406C270.833 32.8906 271.469 33.0156 272.219 33.0156C273.052 33.0156 273.755 32.8854 274.328 32.625C274.901 32.3542 275.344 31.9479 275.656 31.4062C275.969 30.8542 276.135 30.151 276.156 29.2969ZM283.312 28.7188V28.3906C283.312 27.151 283.49 26.0104 283.844 24.9688C284.198 23.9167 284.719 23.0052 285.406 22.2344C286.094 21.4635 286.943 20.8646 287.953 20.4375C288.964 20 290.13 19.7812 291.453 19.7812C292.786 19.7812 293.958 20 294.969 20.4375C295.99 20.8646 296.844 21.4635 297.531 22.2344C298.219 23.0052 298.74 23.9167 299.094 24.9688C299.448 26.0104 299.625 27.151 299.625 28.3906V28.7188C299.625 29.9479 299.448 31.0885 299.094 32.1406C298.74 33.1823 298.219 34.0938 297.531 34.875C296.844 35.6458 295.995 36.2448 294.984 36.6719C293.974 37.099 292.807 37.3125 291.484 37.3125C290.161 37.3125 288.99 37.099 287.969 36.6719C286.948 36.2448 286.094 35.6458 285.406 34.875C284.719 34.0938 284.198 33.1823 283.844 32.1406C283.49 31.0885 283.312 29.9479 283.312 28.7188ZM288.578 28.3906V28.7188C288.578 29.3542 288.625 29.9479 288.719 30.5C288.812 31.0521 288.969 31.5365 289.188 31.9531C289.406 32.3594 289.703 32.6771 290.078 32.9062C290.453 33.1354 290.922 33.25 291.484 33.25C292.036 33.25 292.495 33.1354 292.859 32.9062C293.234 32.6771 293.531 32.3594 293.75 31.9531C293.969 31.5365 294.125 31.0521 294.219 30.5C294.312 29.9479 294.359 29.3542 294.359 28.7188V28.3906C294.359 27.776 294.312 27.1979 294.219 26.6562C294.125 26.1042 293.969 25.6198 293.75 25.2031C293.531 24.776 293.234 24.4427 292.859 24.2031C292.484 23.9635 292.016 23.8438 291.453 23.8438C290.901 23.8438 290.438 23.9635 290.062 24.2031C289.698 24.4427 289.406 24.776 289.188 25.2031C288.969 25.6198 288.812 26.1042 288.719 26.6562C288.625 27.1979 288.578 27.776 288.578 28.3906ZM310.828 32.25C310.828 31.9583 310.729 31.7083 310.531 31.5C310.344 31.2812 310.01 31.0833 309.531 30.9062C309.052 30.7188 308.38 30.5312 307.516 30.3438C306.693 30.1667 305.917 29.9323 305.188 29.6406C304.469 29.349 303.839 28.9948 303.297 28.5781C302.755 28.1615 302.328 27.6667 302.016 27.0938C301.714 26.5208 301.562 25.8646 301.562 25.125C301.562 24.4062 301.714 23.7292 302.016 23.0938C302.328 22.4479 302.781 21.8802 303.375 21.3906C303.979 20.8906 304.714 20.5 305.578 20.2188C306.443 19.9271 307.427 19.7812 308.531 19.7812C310.052 19.7812 311.365 20.0156 312.469 20.4844C313.573 20.9427 314.422 21.5885 315.016 22.4219C315.62 23.2448 315.922 24.1979 315.922 25.2812H310.656C310.656 24.8542 310.583 24.4896 310.438 24.1875C310.302 23.8854 310.078 23.6562 309.766 23.5C309.453 23.3333 309.036 23.25 308.516 23.25C308.151 23.25 307.818 23.3177 307.516 23.4531C307.224 23.5885 306.99 23.776 306.812 24.0156C306.635 24.2552 306.547 24.5365 306.547 24.8594C306.547 25.0885 306.599 25.2969 306.703 25.4844C306.818 25.6615 306.99 25.8281 307.219 25.9844C307.448 26.1302 307.74 26.2656 308.094 26.3906C308.448 26.5052 308.875 26.6094 309.375 26.7031C310.51 26.9115 311.573 27.2083 312.562 27.5938C313.552 27.9792 314.354 28.526 314.969 29.2344C315.594 29.9427 315.906 30.8958 315.906 32.0938C315.906 32.8438 315.734 33.5365 315.391 34.1719C315.047 34.7969 314.552 35.349 313.906 35.8281C313.26 36.2969 312.484 36.6615 311.578 36.9219C310.672 37.1823 309.651 37.3125 308.516 37.3125C306.901 37.3125 305.536 37.026 304.422 36.4531C303.307 35.8698 302.464 35.1406 301.891 34.2656C301.328 33.3802 301.047 32.4844 301.047 31.5781H305.953C305.974 32.099 306.099 32.526 306.328 32.8594C306.568 33.1927 306.885 33.4375 307.281 33.5938C307.677 33.75 308.135 33.8281 308.656 33.8281C309.135 33.8281 309.531 33.7604 309.844 33.625C310.167 33.4896 310.411 33.3073 310.578 33.0781C310.745 32.8385 310.828 32.5625 310.828 32.25ZM323.688 23.6719V37H318.422V20.0938H323.359L323.688 23.6719ZM323.047 27.9688L321.844 28C321.844 26.8125 321.984 25.7188 322.266 24.7188C322.547 23.7188 322.964 22.849 323.516 22.1094C324.068 21.3698 324.745 20.7969 325.547 20.3906C326.359 19.9844 327.297 19.7812 328.359 19.7812C329.099 19.7812 329.771 19.8958 330.375 20.125C330.979 20.3438 331.5 20.6927 331.938 21.1719C332.375 21.6406 332.708 22.2552 332.938 23.0156C333.177 23.7656 333.297 24.6667 333.297 25.7188V37H328.031V26.3906C328.031 25.6719 327.948 25.1302 327.781 24.7656C327.625 24.401 327.396 24.1562 327.094 24.0312C326.792 23.9062 326.422 23.8438 325.984 23.8438C325.526 23.8438 325.115 23.9479 324.75 24.1562C324.385 24.3646 324.073 24.6562 323.812 25.0312C323.562 25.3958 323.37 25.8281 323.234 26.3281C323.109 26.8281 323.047 27.375 323.047 27.9688ZM332.703 27.9688L331.234 28C331.234 26.8125 331.365 25.7188 331.625 24.7188C331.896 23.7188 332.297 22.849 332.828 22.1094C333.37 21.3698 334.042 20.7969 334.844 20.3906C335.646 19.9844 336.578 19.7812 337.641 19.7812C338.411 19.7812 339.12 19.8958 339.766 20.125C340.411 20.3542 340.969 20.724 341.438 21.2344C341.906 21.7448 342.271 22.4219 342.531 23.2656C342.792 24.099 342.922 25.1302 342.922 26.3594V37H337.641V26.3594C337.641 25.6615 337.557 25.1354 337.391 24.7812C337.234 24.4167 337.005 24.1719 336.703 24.0469C336.401 23.9115 336.042 23.8438 335.625 23.8438C335.125 23.8438 334.693 23.9479 334.328 24.1562C333.964 24.3646 333.656 24.6562 333.406 25.0312C333.167 25.3958 332.99 25.8281 332.875 26.3281C332.76 26.8281 332.703 27.375 332.703 27.9688ZM354.125 37.3125C352.75 37.3125 351.521 37.099 350.438 36.6719C349.354 36.2344 348.438 35.6354 347.688 34.875C346.948 34.1146 346.38 33.2396 345.984 32.25C345.599 31.2604 345.406 30.2135 345.406 29.1094V28.5156C345.406 27.276 345.578 26.1302 345.922 25.0781C346.266 24.0156 346.776 23.0885 347.453 22.2969C348.13 21.5052 348.979 20.8906 350 20.4531C351.021 20.0052 352.208 19.7812 353.562 19.7812C354.76 19.7812 355.833 19.974 356.781 20.3594C357.729 20.7448 358.531 21.2969 359.188 22.0156C359.854 22.7344 360.359 23.6042 360.703 24.625C361.057 25.6458 361.234 26.7917 361.234 28.0625V30.2031H347.422V26.9062H356.094V26.5C356.104 25.9375 356.005 25.4583 355.797 25.0625C355.599 24.6667 355.307 24.3646 354.922 24.1562C354.536 23.9479 354.068 23.8438 353.516 23.8438C352.943 23.8438 352.469 23.9688 352.094 24.2188C351.729 24.4688 351.443 24.8125 351.234 25.25C351.036 25.6771 350.896 26.1719 350.812 26.7344C350.729 27.2969 350.688 27.8906 350.688 28.5156V29.1094C350.688 29.7344 350.771 30.3021 350.938 30.8125C351.115 31.3229 351.365 31.7604 351.688 32.125C352.021 32.4792 352.417 32.7552 352.875 32.9531C353.344 33.151 353.875 33.25 354.469 33.25C355.188 33.25 355.896 33.1146 356.594 32.8438C357.292 32.5729 357.891 32.125 358.391 31.5L360.781 34.3438C360.438 34.8333 359.948 35.3073 359.312 35.7656C358.688 36.224 357.938 36.599 357.062 36.8906C356.188 37.1719 355.208 37.3125 354.125 37.3125ZM372.281 20.0938V23.75H362.094V20.0938H372.281ZM364.234 15.8906H369.5V31.4844C369.5 31.9323 369.552 32.2812 369.656 32.5312C369.76 32.7708 369.938 32.9427 370.188 33.0469C370.448 33.1406 370.792 33.1875 371.219 33.1875C371.521 33.1875 371.771 33.1823 371.969 33.1719C372.167 33.151 372.354 33.125 372.531 33.0938V36.8594C372.083 37.0052 371.615 37.1146 371.125 37.1875C370.635 37.2708 370.115 37.3125 369.562 37.3125C368.438 37.3125 367.474 37.1354 366.672 36.7812C365.88 36.4271 365.276 35.8698 364.859 35.1094C364.443 34.349 364.234 33.3594 364.234 32.1406V15.8906ZM379.938 20.0938V37H374.656V20.0938H379.938ZM374.344 15.7344C374.344 14.9844 374.615 14.3698 375.156 13.8906C375.698 13.4115 376.401 13.1719 377.266 13.1719C378.13 13.1719 378.833 13.4115 379.375 13.8906C379.917 14.3698 380.188 14.9844 380.188 15.7344C380.188 16.4844 379.917 17.099 379.375 17.5781C378.833 18.0573 378.13 18.2969 377.266 18.2969C376.401 18.2969 375.698 18.0573 375.156 17.5781C374.615 17.099 374.344 16.4844 374.344 15.7344ZM390.328 33.25C390.818 33.25 391.234 33.1615 391.578 32.9844C391.932 32.7969 392.198 32.5365 392.375 32.2031C392.562 31.8594 392.651 31.4479 392.641 30.9688H397.594C397.604 32.2396 397.292 33.3542 396.656 34.3125C396.031 35.2604 395.177 36 394.094 36.5312C393.021 37.0521 391.807 37.3125 390.453 37.3125C389.13 37.3125 387.974 37.099 386.984 36.6719C385.995 36.2344 385.167 35.6302 384.5 34.8594C383.844 34.0781 383.349 33.1667 383.016 32.125C382.693 31.0833 382.531 29.9531 382.531 28.7344V28.375C382.531 27.1562 382.693 26.026 383.016 24.9844C383.349 23.9323 383.844 23.0208 384.5 22.25C385.167 21.4688 385.99 20.8646 386.969 20.4375C387.958 20 389.109 19.7812 390.422 19.7812C391.828 19.7812 393.068 20.0469 394.141 20.5781C395.224 21.1094 396.073 21.8802 396.688 22.8906C397.302 23.901 397.604 25.125 397.594 26.5625H392.641C392.651 26.0521 392.573 25.5938 392.406 25.1875C392.24 24.7812 391.979 24.4583 391.625 24.2188C391.281 23.9688 390.839 23.8438 390.297 23.8438C389.755 23.8438 389.318 23.9635 388.984 24.2031C388.651 24.4427 388.396 24.776 388.219 25.2031C388.052 25.6198 387.938 26.099 387.875 26.6406C387.823 27.1823 387.797 27.7604 387.797 28.375V28.7344C387.797 29.3594 387.823 29.9479 387.875 30.5C387.938 31.0417 388.057 31.5208 388.234 31.9375C388.411 32.3438 388.667 32.6667 389 32.9062C389.333 33.1354 389.776 33.25 390.328 33.25ZM421 29.2969H426.469C426.396 30.8802 425.969 32.276 425.188 33.4844C424.406 34.6927 423.323 35.6354 421.938 36.3125C420.562 36.9792 418.938 37.3125 417.062 37.3125C415.542 37.3125 414.182 37.0573 412.984 36.5469C411.797 36.0365 410.786 35.3021 409.953 34.3438C409.13 33.3854 408.5 32.224 408.062 30.8594C407.635 29.4948 407.422 27.9583 407.422 26.25V25.0156C407.422 23.3073 407.646 21.7708 408.094 20.4062C408.552 19.0312 409.198 17.8646 410.031 16.9062C410.875 15.9375 411.885 15.1979 413.062 14.6875C414.24 14.1771 415.547 13.9219 416.984 13.9219C418.964 13.9219 420.635 14.276 422 14.9844C423.365 15.6927 424.422 16.6667 425.172 17.9062C425.922 19.1354 426.365 20.5365 426.5 22.1094H421.031C421.01 21.2552 420.865 20.5417 420.594 19.9688C420.323 19.3854 419.896 18.9479 419.312 18.6562C418.729 18.3646 417.953 18.2188 416.984 18.2188C416.307 18.2188 415.719 18.3438 415.219 18.5938C414.719 18.8438 414.302 19.2396 413.969 19.7812C413.635 20.3229 413.385 21.026 413.219 21.8906C413.062 22.7448 412.984 23.776 412.984 24.9844V26.25C412.984 27.4583 413.057 28.4896 413.203 29.3438C413.349 30.1979 413.583 30.8958 413.906 31.4375C414.229 31.9792 414.646 32.3802 415.156 32.6406C415.677 32.8906 416.312 33.0156 417.062 33.0156C417.896 33.0156 418.599 32.8854 419.172 32.625C419.745 32.3542 420.188 31.9479 420.5 31.4062C420.812 30.8542 420.979 30.151 421 29.2969ZM433.969 13V37H428.703V13H433.969ZM433.344 27.9688L432.109 28C432.109 26.8125 432.255 25.7188 432.547 24.7188C432.839 23.7188 433.255 22.849 433.797 22.1094C434.339 21.3698 434.99 20.7969 435.75 20.3906C436.51 19.9844 437.354 19.7812 438.281 19.7812C439.115 19.7812 439.875 19.901 440.562 20.1406C441.26 20.3802 441.859 20.7656 442.359 21.2969C442.87 21.8281 443.26 22.5208 443.531 23.375C443.812 24.2292 443.953 25.2708 443.953 26.5V37H438.656V26.4688C438.656 25.7812 438.557 25.25 438.359 24.875C438.172 24.4896 437.901 24.224 437.547 24.0781C437.193 23.9219 436.76 23.8438 436.25 23.8438C435.635 23.8438 435.135 23.9479 434.75 24.1562C434.365 24.3646 434.068 24.6562 433.859 25.0312C433.661 25.3958 433.526 25.8281 433.453 26.3281C433.38 26.8281 433.344 27.375 433.344 27.9688ZM455.062 37.3125C453.688 37.3125 452.458 37.099 451.375 36.6719C450.292 36.2344 449.375 35.6354 448.625 34.875C447.885 34.1146 447.318 33.2396 446.922 32.25C446.536 31.2604 446.344 30.2135 446.344 29.1094V28.5156C446.344 27.276 446.516 26.1302 446.859 25.0781C447.203 24.0156 447.714 23.0885 448.391 22.2969C449.068 21.5052 449.917 20.8906 450.938 20.4531C451.958 20.0052 453.146 19.7812 454.5 19.7812C455.698 19.7812 456.771 19.974 457.719 20.3594C458.667 20.7448 459.469 21.2969 460.125 22.0156C460.792 22.7344 461.297 23.6042 461.641 24.625C461.995 25.6458 462.172 26.7917 462.172 28.0625V30.2031H448.359V26.9062H457.031V26.5C457.042 25.9375 456.943 25.4583 456.734 25.0625C456.536 24.6667 456.245 24.3646 455.859 24.1562C455.474 23.9479 455.005 23.8438 454.453 23.8438C453.88 23.8438 453.406 23.9688 453.031 24.2188C452.667 24.4688 452.38 24.8125 452.172 25.25C451.974 25.6771 451.833 26.1719 451.75 26.7344C451.667 27.2969 451.625 27.8906 451.625 28.5156V29.1094C451.625 29.7344 451.708 30.3021 451.875 30.8125C452.052 31.3229 452.302 31.7604 452.625 32.125C452.958 32.4792 453.354 32.7552 453.812 32.9531C454.281 33.151 454.812 33.25 455.406 33.25C456.125 33.25 456.833 33.1146 457.531 32.8438C458.229 32.5729 458.828 32.125 459.328 31.5L461.719 34.3438C461.375 34.8333 460.885 35.3073 460.25 35.7656C459.625 36.224 458.875 36.599 458 36.8906C457.125 37.1719 456.146 37.3125 455.062 37.3125ZM469.625 23.6719V37H464.359V20.0938H469.297L469.625 23.6719ZM468.984 27.9688L467.781 28C467.781 26.8125 467.922 25.7188 468.203 24.7188C468.484 23.7188 468.901 22.849 469.453 22.1094C470.005 21.3698 470.682 20.7969 471.484 20.3906C472.297 19.9844 473.234 19.7812 474.297 19.7812C475.036 19.7812 475.708 19.8958 476.312 20.125C476.917 20.3438 477.438 20.6927 477.875 21.1719C478.312 21.6406 478.646 22.2552 478.875 23.0156C479.115 23.7656 479.234 24.6667 479.234 25.7188V37H473.969V26.3906C473.969 25.6719 473.885 25.1302 473.719 24.7656C473.562 24.401 473.333 24.1562 473.031 24.0312C472.729 23.9062 472.359 23.8438 471.922 23.8438C471.464 23.8438 471.052 23.9479 470.688 24.1562C470.323 24.3646 470.01 24.6562 469.75 25.0312C469.5 25.3958 469.307 25.8281 469.172 26.3281C469.047 26.8281 468.984 27.375 468.984 27.9688ZM478.641 27.9688L477.172 28C477.172 26.8125 477.302 25.7188 477.562 24.7188C477.833 23.7188 478.234 22.849 478.766 22.1094C479.307 21.3698 479.979 20.7969 480.781 20.3906C481.583 19.9844 482.516 19.7812 483.578 19.7812C484.349 19.7812 485.057 19.8958 485.703 20.125C486.349 20.3542 486.906 20.724 487.375 21.2344C487.844 21.7448 488.208 22.4219 488.469 23.2656C488.729 24.099 488.859 25.1302 488.859 26.3594V37H483.578V26.3594C483.578 25.6615 483.495 25.1354 483.328 24.7812C483.172 24.4167 482.943 24.1719 482.641 24.0469C482.339 23.9115 481.979 23.8438 481.562 23.8438C481.062 23.8438 480.63 23.9479 480.266 24.1562C479.901 24.3646 479.594 24.6562 479.344 25.0312C479.104 25.3958 478.927 25.8281 478.812 26.3281C478.698 26.8281 478.641 27.375 478.641 27.9688ZM497.438 20.0938V37H492.156V20.0938H497.438ZM491.844 15.7344C491.844 14.9844 492.115 14.3698 492.656 13.8906C493.198 13.4115 493.901 13.1719 494.766 13.1719C495.63 13.1719 496.333 13.4115 496.875 13.8906C497.417 14.3698 497.688 14.9844 497.688 15.7344C497.688 16.4844 497.417 17.099 496.875 17.5781C496.333 18.0573 495.63 18.2969 494.766 18.2969C493.901 18.2969 493.198 18.0573 492.656 17.5781C492.115 17.099 491.844 16.4844 491.844 15.7344ZM509.547 32.25C509.547 31.9583 509.448 31.7083 509.25 31.5C509.062 31.2812 508.729 31.0833 508.25 30.9062C507.771 30.7188 507.099 30.5312 506.234 30.3438C505.411 30.1667 504.635 29.9323 503.906 29.6406C503.188 29.349 502.557 28.9948 502.016 28.5781C501.474 28.1615 501.047 27.6667 500.734 27.0938C500.432 26.5208 500.281 25.8646 500.281 25.125C500.281 24.4062 500.432 23.7292 500.734 23.0938C501.047 22.4479 501.5 21.8802 502.094 21.3906C502.698 20.8906 503.432 20.5 504.297 20.2188C505.161 19.9271 506.146 19.7812 507.25 19.7812C508.771 19.7812 510.083 20.0156 511.188 20.4844C512.292 20.9427 513.141 21.5885 513.734 22.4219C514.339 23.2448 514.641 24.1979 514.641 25.2812H509.375C509.375 24.8542 509.302 24.4896 509.156 24.1875C509.021 23.8854 508.797 23.6562 508.484 23.5C508.172 23.3333 507.755 23.25 507.234 23.25C506.87 23.25 506.536 23.3177 506.234 23.4531C505.943 23.5885 505.708 23.776 505.531 24.0156C505.354 24.2552 505.266 24.5365 505.266 24.8594C505.266 25.0885 505.318 25.2969 505.422 25.4844C505.536 25.6615 505.708 25.8281 505.938 25.9844C506.167 26.1302 506.458 26.2656 506.812 26.3906C507.167 26.5052 507.594 26.6094 508.094 26.7031C509.229 26.9115 510.292 27.2083 511.281 27.5938C512.271 27.9792 513.073 28.526 513.688 29.2344C514.312 29.9427 514.625 30.8958 514.625 32.0938C514.625 32.8438 514.453 33.5365 514.109 34.1719C513.766 34.7969 513.271 35.349 512.625 35.8281C511.979 36.2969 511.203 36.6615 510.297 36.9219C509.391 37.1823 508.37 37.3125 507.234 37.3125C505.62 37.3125 504.255 37.026 503.141 36.4531C502.026 35.8698 501.182 35.1406 500.609 34.2656C500.047 33.3802 499.766 32.4844 499.766 31.5781H504.672C504.693 32.099 504.818 32.526 505.047 32.8594C505.286 33.1927 505.604 33.4375 506 33.5938C506.396 33.75 506.854 33.8281 507.375 33.8281C507.854 33.8281 508.25 33.7604 508.562 33.625C508.885 33.4896 509.13 33.3073 509.297 33.0781C509.464 32.8385 509.547 32.5625 509.547 32.25ZM526 20.0938V23.75H515.812V20.0938H526ZM517.953 15.8906H523.219V31.4844C523.219 31.9323 523.271 32.2812 523.375 32.5312C523.479 32.7708 523.656 32.9427 523.906 33.0469C524.167 33.1406 524.51 33.1875 524.938 33.1875C525.24 33.1875 525.49 33.1823 525.688 33.1719C525.885 33.151 526.073 33.125 526.25 33.0938V36.8594C525.802 37.0052 525.333 37.1146 524.844 37.1875C524.354 37.2708 523.833 37.3125 523.281 37.3125C522.156 37.3125 521.193 37.1354 520.391 36.7812C519.599 36.4271 518.995 35.8698 518.578 35.1094C518.161 34.349 517.953 33.3594 517.953 32.1406V15.8906ZM536.953 32.25C536.953 31.9583 536.854 31.7083 536.656 31.5C536.469 31.2812 536.135 31.0833 535.656 30.9062C535.177 30.7188 534.505 30.5312 533.641 30.3438C532.818 30.1667 532.042 29.9323 531.312 29.6406C530.594 29.349 529.964 28.9948 529.422 28.5781C528.88 28.1615 528.453 27.6667 528.141 27.0938C527.839 26.5208 527.688 25.8646 527.688 25.125C527.688 24.4062 527.839 23.7292 528.141 23.0938C528.453 22.4479 528.906 21.8802 529.5 21.3906C530.104 20.8906 530.839 20.5 531.703 20.2188C532.568 19.9271 533.552 19.7812 534.656 19.7812C536.177 19.7812 537.49 20.0156 538.594 20.4844C539.698 20.9427 540.547 21.5885 541.141 22.4219C541.745 23.2448 542.047 24.1979 542.047 25.2812H536.781C536.781 24.8542 536.708 24.4896 536.562 24.1875C536.427 23.8854 536.203 23.6562 535.891 23.5C535.578 23.3333 535.161 23.25 534.641 23.25C534.276 23.25 533.943 23.3177 533.641 23.4531C533.349 23.5885 533.115 23.776 532.938 24.0156C532.76 24.2552 532.672 24.5365 532.672 24.8594C532.672 25.0885 532.724 25.2969 532.828 25.4844C532.943 25.6615 533.115 25.8281 533.344 25.9844C533.573 26.1302 533.865 26.2656 534.219 26.3906C534.573 26.5052 535 26.6094 535.5 26.7031C536.635 26.9115 537.698 27.2083 538.688 27.5938C539.677 27.9792 540.479 28.526 541.094 29.2344C541.719 29.9427 542.031 30.8958 542.031 32.0938C542.031 32.8438 541.859 33.5365 541.516 34.1719C541.172 34.7969 540.677 35.349 540.031 35.8281C539.385 36.2969 538.609 36.6615 537.703 36.9219C536.797 37.1823 535.776 37.3125 534.641 37.3125C533.026 37.3125 531.661 37.026 530.547 36.4531C529.432 35.8698 528.589 35.1406 528.016 34.2656C527.453 33.3802 527.172 32.4844 527.172 31.5781H532.078C532.099 32.099 532.224 32.526 532.453 32.8594C532.693 33.1927 533.01 33.4375 533.406 33.5938C533.802 33.75 534.26 33.8281 534.781 33.8281C535.26 33.8281 535.656 33.7604 535.969 33.625C536.292 33.4896 536.536 33.3073 536.703 33.0781C536.87 32.8385 536.953 32.5625 536.953 32.25ZM136.422 64.0938V67.75H126.234V64.0938H136.422ZM128.375 59.8906H133.641V75.4844C133.641 75.9323 133.693 76.2812 133.797 76.5312C133.901 76.7708 134.078 76.9427 134.328 77.0469C134.589 77.1406 134.932 77.1875 135.359 77.1875C135.661 77.1875 135.911 77.1823 136.109 77.1719C136.307 77.151 136.495 77.125 136.672 77.0938V80.8594C136.224 81.0052 135.755 81.1146 135.266 81.1875C134.776 81.2708 134.255 81.3125 133.703 81.3125C132.578 81.3125 131.615 81.1354 130.812 80.7812C130.021 80.4271 129.417 79.8698 129 79.1094C128.583 78.349 128.375 77.3594 128.375 76.1406V59.8906ZM137.391 72.7188V72.3906C137.391 71.151 137.568 70.0104 137.922 68.9688C138.276 67.9167 138.797 67.0052 139.484 66.2344C140.172 65.4635 141.021 64.8646 142.031 64.4375C143.042 64 144.208 63.7812 145.531 63.7812C146.865 63.7812 148.036 64 149.047 64.4375C150.068 64.8646 150.922 65.4635 151.609 66.2344C152.297 67.0052 152.818 67.9167 153.172 68.9688C153.526 70.0104 153.703 71.151 153.703 72.3906V72.7188C153.703 73.9479 153.526 75.0885 153.172 76.1406C152.818 77.1823 152.297 78.0938 151.609 78.875C150.922 79.6458 150.073 80.2448 149.062 80.6719C148.052 81.099 146.885 81.3125 145.562 81.3125C144.24 81.3125 143.068 81.099 142.047 80.6719C141.026 80.2448 140.172 79.6458 139.484 78.875C138.797 78.0938 138.276 77.1823 137.922 76.1406C137.568 75.0885 137.391 73.9479 137.391 72.7188ZM142.656 72.3906V72.7188C142.656 73.3542 142.703 73.9479 142.797 74.5C142.891 75.0521 143.047 75.5365 143.266 75.9531C143.484 76.3594 143.781 76.6771 144.156 76.9062C144.531 77.1354 145 77.25 145.562 77.25C146.115 77.25 146.573 77.1354 146.938 76.9062C147.312 76.6771 147.609 76.3594 147.828 75.9531C148.047 75.5365 148.203 75.0521 148.297 74.5C148.391 73.9479 148.438 73.3542 148.438 72.7188V72.3906C148.438 71.776 148.391 71.1979 148.297 70.6562C148.203 70.1042 148.047 69.6198 147.828 69.2031C147.609 68.776 147.312 68.4427 146.938 68.2031C146.562 67.9635 146.094 67.8438 145.531 67.8438C144.979 67.8438 144.516 67.9635 144.141 68.2031C143.776 68.4427 143.484 68.776 143.266 69.2031C143.047 69.6198 142.891 70.1042 142.797 70.6562C142.703 71.1979 142.656 71.776 142.656 72.3906ZM172.203 81.3125C170.828 81.3125 169.599 81.099 168.516 80.6719C167.432 80.2344 166.516 79.6354 165.766 78.875C165.026 78.1146 164.458 77.2396 164.062 76.25C163.677 75.2604 163.484 74.2135 163.484 73.1094V72.5156C163.484 71.276 163.656 70.1302 164 69.0781C164.344 68.0156 164.854 67.0885 165.531 66.2969C166.208 65.5052 167.057 64.8906 168.078 64.4531C169.099 64.0052 170.286 63.7812 171.641 63.7812C172.839 63.7812 173.911 63.974 174.859 64.3594C175.807 64.7448 176.609 65.2969 177.266 66.0156C177.932 66.7344 178.438 67.6042 178.781 68.625C179.135 69.6458 179.312 70.7917 179.312 72.0625V74.2031H165.5V70.9062H174.172V70.5C174.182 69.9375 174.083 69.4583 173.875 69.0625C173.677 68.6667 173.385 68.3646 173 68.1562C172.615 67.9479 172.146 67.8438 171.594 67.8438C171.021 67.8438 170.547 67.9688 170.172 68.2188C169.807 68.4688 169.521 68.8125 169.312 69.25C169.115 69.6771 168.974 70.1719 168.891 70.7344C168.807 71.2969 168.766 71.8906 168.766 72.5156V73.1094C168.766 73.7344 168.849 74.3021 169.016 74.8125C169.193 75.3229 169.443 75.7604 169.766 76.125C170.099 76.4792 170.495 76.7552 170.953 76.9531C171.422 77.151 171.953 77.25 172.547 77.25C173.266 77.25 173.974 77.1146 174.672 76.8438C175.37 76.5729 175.969 76.125 176.469 75.5L178.859 78.3438C178.516 78.8333 178.026 79.3073 177.391 79.7656C176.766 80.224 176.016 80.599 175.141 80.8906C174.266 81.1719 173.286 81.3125 172.203 81.3125ZM185.922 64.0938L188.297 68.75L190.75 64.0938H196.219L191.781 72.3281L196.453 81H190.938L188.297 76L185.672 81H180.156L184.828 72.3281L180.406 64.0938H185.922ZM203.266 67.3438V87.5H198V64.0938H202.906L203.266 67.3438ZM213.641 72.3438V72.6719C213.641 73.901 213.5 75.0417 213.219 76.0938C212.938 77.1458 212.521 78.0625 211.969 78.8438C211.417 79.625 210.729 80.2344 209.906 80.6719C209.094 81.099 208.151 81.3125 207.078 81.3125C206.068 81.3125 205.198 81.0885 204.469 80.6406C203.74 80.1927 203.13 79.5729 202.641 78.7812C202.151 77.9896 201.755 77.0833 201.453 76.0625C201.151 75.0417 200.911 73.9635 200.734 72.8281V72.4062C200.911 71.1875 201.151 70.0573 201.453 69.0156C201.755 67.9635 202.151 67.0469 202.641 66.2656C203.13 65.4844 203.734 64.875 204.453 64.4375C205.182 64 206.052 63.7812 207.062 63.7812C208.135 63.7812 209.078 63.9844 209.891 64.3906C210.714 64.7969 211.401 65.3802 211.953 66.1406C212.516 66.8906 212.938 67.7917 213.219 68.8438C213.5 69.8958 213.641 71.0625 213.641 72.3438ZM208.375 72.6719V72.3438C208.375 71.6875 208.328 71.0885 208.234 70.5469C208.141 69.9948 207.99 69.5156 207.781 69.1094C207.583 68.7031 207.318 68.3906 206.984 68.1719C206.651 67.9531 206.24 67.8438 205.75 67.8438C205.188 67.8438 204.714 67.9323 204.328 68.1094C203.953 68.276 203.651 68.5365 203.422 68.8906C203.203 69.2344 203.047 69.6667 202.953 70.1875C202.87 70.6979 202.833 71.2969 202.844 71.9844V73.2656C202.823 74.0573 202.901 74.7552 203.078 75.3594C203.255 75.9531 203.562 76.4167 204 76.75C204.438 77.0833 205.031 77.25 205.781 77.25C206.281 77.25 206.698 77.1354 207.031 76.9062C207.365 76.6667 207.63 76.3385 207.828 75.9219C208.026 75.4948 208.167 75.0052 208.25 74.4531C208.333 73.901 208.375 73.3073 208.375 72.6719ZM224.172 81.3125C222.797 81.3125 221.568 81.099 220.484 80.6719C219.401 80.2344 218.484 79.6354 217.734 78.875C216.995 78.1146 216.427 77.2396 216.031 76.25C215.646 75.2604 215.453 74.2135 215.453 73.1094V72.5156C215.453 71.276 215.625 70.1302 215.969 69.0781C216.312 68.0156 216.823 67.0885 217.5 66.2969C218.177 65.5052 219.026 64.8906 220.047 64.4531C221.068 64.0052 222.255 63.7812 223.609 63.7812C224.807 63.7812 225.88 63.974 226.828 64.3594C227.776 64.7448 228.578 65.2969 229.234 66.0156C229.901 66.7344 230.406 67.6042 230.75 68.625C231.104 69.6458 231.281 70.7917 231.281 72.0625V74.2031H217.469V70.9062H226.141V70.5C226.151 69.9375 226.052 69.4583 225.844 69.0625C225.646 68.6667 225.354 68.3646 224.969 68.1562C224.583 67.9479 224.115 67.8438 223.562 67.8438C222.99 67.8438 222.516 67.9688 222.141 68.2188C221.776 68.4688 221.49 68.8125 221.281 69.25C221.083 69.6771 220.943 70.1719 220.859 70.7344C220.776 71.2969 220.734 71.8906 220.734 72.5156V73.1094C220.734 73.7344 220.818 74.3021 220.984 74.8125C221.161 75.3229 221.411 75.7604 221.734 76.125C222.068 76.4792 222.464 76.7552 222.922 76.9531C223.391 77.151 223.922 77.25 224.516 77.25C225.234 77.25 225.943 77.1146 226.641 76.8438C227.339 76.5729 227.938 76.125 228.438 75.5L230.828 78.3438C230.484 78.8333 229.995 79.3073 229.359 79.7656C228.734 80.224 227.984 80.599 227.109 80.8906C226.234 81.1719 225.255 81.3125 224.172 81.3125ZM243.141 77.125V57H248.438V81H243.688L243.141 77.125ZM232.766 72.75V72.4219C232.766 71.1406 232.906 69.974 233.188 68.9219C233.469 67.8594 233.885 66.9479 234.438 66.1875C234.99 65.4167 235.677 64.8229 236.5 64.4062C237.323 63.9896 238.271 63.7812 239.344 63.7812C240.302 63.7812 241.141 64.0052 241.859 64.4531C242.578 64.8906 243.193 65.5052 243.703 66.2969C244.214 67.0885 244.63 68.0156 244.953 69.0781C245.276 70.1302 245.521 71.2656 245.688 72.4844V72.875C245.521 74.0208 245.276 75.1042 244.953 76.125C244.63 77.1354 244.214 78.0312 243.703 78.8125C243.193 79.5938 242.573 80.2083 241.844 80.6562C241.125 81.0938 240.281 81.3125 239.312 81.3125C238.24 81.3125 237.292 81.099 236.469 80.6719C235.656 80.2448 234.974 79.6458 234.422 78.875C233.88 78.1042 233.469 77.1979 233.188 76.1562C232.906 75.1146 232.766 73.9792 232.766 72.75ZM238.031 72.4219V72.75C238.031 73.3854 238.073 73.974 238.156 74.5156C238.24 75.0573 238.38 75.5365 238.578 75.9531C238.786 76.3594 239.057 76.6771 239.391 76.9062C239.734 77.1354 240.156 77.25 240.656 77.25C241.333 77.25 241.891 77.0885 242.328 76.7656C242.776 76.4427 243.104 75.9844 243.312 75.3906C243.531 74.7969 243.625 74.099 243.594 73.2969V72.0625C243.615 71.375 243.568 70.7708 243.453 70.25C243.339 69.7188 243.156 69.276 242.906 68.9219C242.667 68.5677 242.359 68.3021 241.984 68.125C241.62 67.9375 241.188 67.8438 240.688 67.8438C240.198 67.8438 239.781 67.9583 239.438 68.1875C239.104 68.4167 238.833 68.7396 238.625 69.1562C238.417 69.5625 238.266 70.0469 238.172 70.6094C238.078 71.1615 238.031 71.7656 238.031 72.4219ZM256.984 64.0938V81H251.703V64.0938H256.984ZM251.391 59.7344C251.391 58.9844 251.661 58.3698 252.203 57.8906C252.745 57.4115 253.448 57.1719 254.312 57.1719C255.177 57.1719 255.88 57.4115 256.422 57.8906C256.964 58.3698 257.234 58.9844 257.234 59.7344C257.234 60.4844 256.964 61.099 256.422 61.5781C255.88 62.0573 255.177 62.2969 254.312 62.2969C253.448 62.2969 252.745 62.0573 252.203 61.5781C251.661 61.099 251.391 60.4844 251.391 59.7344ZM269.141 64.0938V67.75H258.953V64.0938H269.141ZM261.094 59.8906H266.359V75.4844C266.359 75.9323 266.411 76.2812 266.516 76.5312C266.62 76.7708 266.797 76.9427 267.047 77.0469C267.307 77.1406 267.651 77.1875 268.078 77.1875C268.38 77.1875 268.63 77.1823 268.828 77.1719C269.026 77.151 269.214 77.125 269.391 77.0938V80.8594C268.943 81.0052 268.474 81.1146 267.984 81.1875C267.495 81.2708 266.974 81.3125 266.422 81.3125C265.297 81.3125 264.333 81.1354 263.531 80.7812C262.74 80.4271 262.135 79.8698 261.719 79.1094C261.302 78.349 261.094 77.3594 261.094 76.1406V59.8906ZM279.422 81.3125C278.047 81.3125 276.818 81.099 275.734 80.6719C274.651 80.2344 273.734 79.6354 272.984 78.875C272.245 78.1146 271.677 77.2396 271.281 76.25C270.896 75.2604 270.703 74.2135 270.703 73.1094V72.5156C270.703 71.276 270.875 70.1302 271.219 69.0781C271.562 68.0156 272.073 67.0885 272.75 66.2969C273.427 65.5052 274.276 64.8906 275.297 64.4531C276.318 64.0052 277.505 63.7812 278.859 63.7812C280.057 63.7812 281.13 63.974 282.078 64.3594C283.026 64.7448 283.828 65.2969 284.484 66.0156C285.151 66.7344 285.656 67.6042 286 68.625C286.354 69.6458 286.531 70.7917 286.531 72.0625V74.2031H272.719V70.9062H281.391V70.5C281.401 69.9375 281.302 69.4583 281.094 69.0625C280.896 68.6667 280.604 68.3646 280.219 68.1562C279.833 67.9479 279.365 67.8438 278.812 67.8438C278.24 67.8438 277.766 67.9688 277.391 68.2188C277.026 68.4688 276.74 68.8125 276.531 69.25C276.333 69.6771 276.193 70.1719 276.109 70.7344C276.026 71.2969 275.984 71.8906 275.984 72.5156V73.1094C275.984 73.7344 276.068 74.3021 276.234 74.8125C276.411 75.3229 276.661 75.7604 276.984 76.125C277.318 76.4792 277.714 76.7552 278.172 76.9531C278.641 77.151 279.172 77.25 279.766 77.25C280.484 77.25 281.193 77.1146 281.891 76.8438C282.589 76.5729 283.188 76.125 283.688 75.5L286.078 78.3438C285.734 78.8333 285.245 79.3073 284.609 79.7656C283.984 80.224 283.234 80.599 282.359 80.8906C281.484 81.1719 280.505 81.3125 279.422 81.3125ZM305.5 76.25C305.5 75.9583 305.401 75.7083 305.203 75.5C305.016 75.2812 304.682 75.0833 304.203 74.9062C303.724 74.7188 303.052 74.5312 302.188 74.3438C301.365 74.1667 300.589 73.9323 299.859 73.6406C299.141 73.349 298.51 72.9948 297.969 72.5781C297.427 72.1615 297 71.6667 296.688 71.0938C296.385 70.5208 296.234 69.8646 296.234 69.125C296.234 68.4062 296.385 67.7292 296.688 67.0938C297 66.4479 297.453 65.8802 298.047 65.3906C298.651 64.8906 299.385 64.5 300.25 64.2188C301.115 63.9271 302.099 63.7812 303.203 63.7812C304.724 63.7812 306.036 64.0156 307.141 64.4844C308.245 64.9427 309.094 65.5885 309.688 66.4219C310.292 67.2448 310.594 68.1979 310.594 69.2812H305.328C305.328 68.8542 305.255 68.4896 305.109 68.1875C304.974 67.8854 304.75 67.6562 304.438 67.5C304.125 67.3333 303.708 67.25 303.188 67.25C302.823 67.25 302.49 67.3177 302.188 67.4531C301.896 67.5885 301.661 67.776 301.484 68.0156C301.307 68.2552 301.219 68.5365 301.219 68.8594C301.219 69.0885 301.271 69.2969 301.375 69.4844C301.49 69.6615 301.661 69.8281 301.891 69.9844C302.12 70.1302 302.411 70.2656 302.766 70.3906C303.12 70.5052 303.547 70.6094 304.047 70.7031C305.182 70.9115 306.245 71.2083 307.234 71.5938C308.224 71.9792 309.026 72.526 309.641 73.2344C310.266 73.9427 310.578 74.8958 310.578 76.0938C310.578 76.8438 310.406 77.5365 310.062 78.1719C309.719 78.7969 309.224 79.349 308.578 79.8281C307.932 80.2969 307.156 80.6615 306.25 80.9219C305.344 81.1823 304.323 81.3125 303.188 81.3125C301.573 81.3125 300.208 81.026 299.094 80.4531C297.979 79.8698 297.135 79.1406 296.562 78.2656C296 77.3802 295.719 76.4844 295.719 75.5781H300.625C300.646 76.099 300.771 76.526 301 76.8594C301.24 77.1927 301.557 77.4375 301.953 77.5938C302.349 77.75 302.807 77.8281 303.328 77.8281C303.807 77.8281 304.203 77.7604 304.516 77.625C304.839 77.4896 305.083 77.3073 305.25 77.0781C305.417 76.8385 305.5 76.5625 305.5 76.25ZM322.922 76.8906V64.0938H328.203V81H323.266L322.922 76.8906ZM323.422 73.4531L324.797 73.4219C324.797 74.5573 324.661 75.6094 324.391 76.5781C324.12 77.5365 323.719 78.3698 323.188 79.0781C322.667 79.7865 322.021 80.3385 321.25 80.7344C320.49 81.1198 319.609 81.3125 318.609 81.3125C317.776 81.3125 317.01 81.1979 316.312 80.9688C315.625 80.7292 315.031 80.3594 314.531 79.8594C314.031 79.349 313.641 78.6979 313.359 77.9062C313.089 77.1042 312.953 76.1458 312.953 75.0312V64.0938H318.219V75.0625C318.219 75.4375 318.266 75.7604 318.359 76.0312C318.453 76.3021 318.589 76.5312 318.766 76.7188C318.943 76.8958 319.161 77.0312 319.422 77.125C319.693 77.2083 320 77.25 320.344 77.25C321.135 77.25 321.755 77.0833 322.203 76.75C322.651 76.4167 322.964 75.9635 323.141 75.3906C323.328 74.8177 323.422 74.1719 323.422 73.4531ZM339.969 76.25C339.969 75.9583 339.87 75.7083 339.672 75.5C339.484 75.2812 339.151 75.0833 338.672 74.9062C338.193 74.7188 337.521 74.5312 336.656 74.3438C335.833 74.1667 335.057 73.9323 334.328 73.6406C333.609 73.349 332.979 72.9948 332.438 72.5781C331.896 72.1615 331.469 71.6667 331.156 71.0938C330.854 70.5208 330.703 69.8646 330.703 69.125C330.703 68.4062 330.854 67.7292 331.156 67.0938C331.469 66.4479 331.922 65.8802 332.516 65.3906C333.12 64.8906 333.854 64.5 334.719 64.2188C335.583 63.9271 336.568 63.7812 337.672 63.7812C339.193 63.7812 340.505 64.0156 341.609 64.4844C342.714 64.9427 343.562 65.5885 344.156 66.4219C344.76 67.2448 345.062 68.1979 345.062 69.2812H339.797C339.797 68.8542 339.724 68.4896 339.578 68.1875C339.443 67.8854 339.219 67.6562 338.906 67.5C338.594 67.3333 338.177 67.25 337.656 67.25C337.292 67.25 336.958 67.3177 336.656 67.4531C336.365 67.5885 336.13 67.776 335.953 68.0156C335.776 68.2552 335.688 68.5365 335.688 68.8594C335.688 69.0885 335.74 69.2969 335.844 69.4844C335.958 69.6615 336.13 69.8281 336.359 69.9844C336.589 70.1302 336.88 70.2656 337.234 70.3906C337.589 70.5052 338.016 70.6094 338.516 70.7031C339.651 70.9115 340.714 71.2083 341.703 71.5938C342.693 71.9792 343.495 72.526 344.109 73.2344C344.734 73.9427 345.047 74.8958 345.047 76.0938C345.047 76.8438 344.875 77.5365 344.531 78.1719C344.188 78.7969 343.693 79.349 343.047 79.8281C342.401 80.2969 341.625 80.6615 340.719 80.9219C339.812 81.1823 338.792 81.3125 337.656 81.3125C336.042 81.3125 334.677 81.026 333.562 80.4531C332.448 79.8698 331.604 79.1406 331.031 78.2656C330.469 77.3802 330.188 76.4844 330.188 75.5781H335.094C335.115 76.099 335.24 76.526 335.469 76.8594C335.708 77.1927 336.026 77.4375 336.422 77.5938C336.818 77.75 337.276 77.8281 337.797 77.8281C338.276 77.8281 338.672 77.7604 338.984 77.625C339.307 77.4896 339.552 77.3073 339.719 77.0781C339.885 76.8385 339.969 76.5625 339.969 76.25ZM356.422 64.0938V67.75H346.234V64.0938H356.422ZM348.375 59.8906H353.641V75.4844C353.641 75.9323 353.693 76.2812 353.797 76.5312C353.901 76.7708 354.078 76.9427 354.328 77.0469C354.589 77.1406 354.932 77.1875 355.359 77.1875C355.661 77.1875 355.911 77.1823 356.109 77.1719C356.307 77.151 356.495 77.125 356.672 77.0938V80.8594C356.224 81.0052 355.755 81.1146 355.266 81.1875C354.776 81.2708 354.255 81.3125 353.703 81.3125C352.578 81.3125 351.615 81.1354 350.812 80.7812C350.021 80.4271 349.417 79.8698 349 79.1094C348.583 78.349 348.375 77.3594 348.375 76.1406V59.8906ZM367.297 76.75V69.7812C367.297 69.3021 367.229 68.8906 367.094 68.5469C366.958 68.2031 366.745 67.9375 366.453 67.75C366.161 67.5521 365.771 67.4531 365.281 67.4531C364.885 67.4531 364.547 67.5208 364.266 67.6562C363.984 67.7917 363.771 67.9948 363.625 68.2656C363.479 68.5365 363.406 68.8802 363.406 69.2969H358.141C358.141 68.5156 358.312 67.7917 358.656 67.125C359.01 66.4479 359.51 65.8594 360.156 65.3594C360.812 64.8594 361.594 64.474 362.5 64.2031C363.417 63.9219 364.438 63.7812 365.562 63.7812C366.906 63.7812 368.104 64.0052 369.156 64.4531C370.219 64.901 371.057 65.5729 371.672 66.4688C372.286 67.3542 372.594 68.4688 372.594 69.8125V76.7344C372.594 77.8385 372.656 78.6771 372.781 79.25C372.906 79.8125 373.083 80.3073 373.312 80.7344V81H368.031C367.781 80.4792 367.594 79.8438 367.469 79.0938C367.354 78.3333 367.297 77.5521 367.297 76.75ZM367.938 70.6719L367.969 73.4844H365.641C365.151 73.4844 364.734 73.5521 364.391 73.6875C364.057 73.8229 363.786 74.0104 363.578 74.25C363.38 74.4792 363.234 74.7396 363.141 75.0312C363.057 75.3229 363.016 75.6302 363.016 75.9531C363.016 76.2656 363.089 76.5469 363.234 76.7969C363.391 77.0365 363.599 77.224 363.859 77.3594C364.12 77.4948 364.411 77.5625 364.734 77.5625C365.318 77.5625 365.812 77.4531 366.219 77.2344C366.635 77.0052 366.953 76.7292 367.172 76.4062C367.391 76.0833 367.5 75.7812 367.5 75.5L368.656 77.6562C368.448 78.0729 368.208 78.4948 367.938 78.9219C367.677 79.349 367.349 79.7448 366.953 80.1094C366.568 80.4635 366.094 80.7552 365.531 80.9844C364.969 81.2031 364.286 81.3125 363.484 81.3125C362.443 81.3125 361.484 81.099 360.609 80.6719C359.745 80.2448 359.052 79.651 358.531 78.8906C358.01 78.1198 357.75 77.2344 357.75 76.2344C357.75 75.3594 357.906 74.5781 358.219 73.8906C358.542 73.2031 359.026 72.6198 359.672 72.1406C360.318 71.6615 361.141 71.2969 362.141 71.0469C363.141 70.7969 364.318 70.6719 365.672 70.6719H367.938ZM381.078 64.0938V81H375.797V64.0938H381.078ZM375.484 59.7344C375.484 58.9844 375.755 58.3698 376.297 57.8906C376.839 57.4115 377.542 57.1719 378.406 57.1719C379.271 57.1719 379.974 57.4115 380.516 57.8906C381.057 58.3698 381.328 58.9844 381.328 59.7344C381.328 60.4844 381.057 61.099 380.516 61.5781C379.974 62.0573 379.271 62.2969 378.406 62.2969C377.542 62.2969 376.839 62.0573 376.297 61.5781C375.755 61.099 375.484 60.4844 375.484 59.7344ZM389.5 67.7031V81H384.234V64.0938H389.172L389.5 67.7031ZM388.875 71.9688L387.641 72C387.641 70.7083 387.797 69.5573 388.109 68.5469C388.422 67.526 388.865 66.6615 389.438 65.9531C390.01 65.2448 390.693 64.7083 391.484 64.3438C392.286 63.9688 393.177 63.7812 394.156 63.7812C394.938 63.7812 395.651 63.8958 396.297 64.125C396.953 64.3542 397.516 64.724 397.984 65.2344C398.464 65.7448 398.828 66.4219 399.078 67.2656C399.339 68.099 399.469 69.1302 399.469 70.3594V81H394.172V70.3438C394.172 69.6667 394.078 69.151 393.891 68.7969C393.703 68.4323 393.432 68.1823 393.078 68.0469C392.724 67.9115 392.292 67.8438 391.781 67.8438C391.24 67.8438 390.781 67.9479 390.406 68.1562C390.031 68.3646 389.729 68.6562 389.5 69.0312C389.281 69.3958 389.12 69.8281 389.016 70.3281C388.922 70.8281 388.875 71.375 388.875 71.9688ZM411.172 76.75V69.7812C411.172 69.3021 411.104 68.8906 410.969 68.5469C410.833 68.2031 410.62 67.9375 410.328 67.75C410.036 67.5521 409.646 67.4531 409.156 67.4531C408.76 67.4531 408.422 67.5208 408.141 67.6562C407.859 67.7917 407.646 67.9948 407.5 68.2656C407.354 68.5365 407.281 68.8802 407.281 69.2969H402.016C402.016 68.5156 402.188 67.7917 402.531 67.125C402.885 66.4479 403.385 65.8594 404.031 65.3594C404.688 64.8594 405.469 64.474 406.375 64.2031C407.292 63.9219 408.312 63.7812 409.438 63.7812C410.781 63.7812 411.979 64.0052 413.031 64.4531C414.094 64.901 414.932 65.5729 415.547 66.4688C416.161 67.3542 416.469 68.4688 416.469 69.8125V76.7344C416.469 77.8385 416.531 78.6771 416.656 79.25C416.781 79.8125 416.958 80.3073 417.188 80.7344V81H411.906C411.656 80.4792 411.469 79.8438 411.344 79.0938C411.229 78.3333 411.172 77.5521 411.172 76.75ZM411.812 70.6719L411.844 73.4844H409.516C409.026 73.4844 408.609 73.5521 408.266 73.6875C407.932 73.8229 407.661 74.0104 407.453 74.25C407.255 74.4792 407.109 74.7396 407.016 75.0312C406.932 75.3229 406.891 75.6302 406.891 75.9531C406.891 76.2656 406.964 76.5469 407.109 76.7969C407.266 77.0365 407.474 77.224 407.734 77.3594C407.995 77.4948 408.286 77.5625 408.609 77.5625C409.193 77.5625 409.688 77.4531 410.094 77.2344C410.51 77.0052 410.828 76.7292 411.047 76.4062C411.266 76.0833 411.375 75.7812 411.375 75.5L412.531 77.6562C412.323 78.0729 412.083 78.4948 411.812 78.9219C411.552 79.349 411.224 79.7448 410.828 80.1094C410.443 80.4635 409.969 80.7552 409.406 80.9844C408.844 81.2031 408.161 81.3125 407.359 81.3125C406.318 81.3125 405.359 81.099 404.484 80.6719C403.62 80.2448 402.927 79.651 402.406 78.8906C401.885 78.1198 401.625 77.2344 401.625 76.2344C401.625 75.3594 401.781 74.5781 402.094 73.8906C402.417 73.2031 402.901 72.6198 403.547 72.1406C404.193 71.6615 405.016 71.2969 406.016 71.0469C407.016 70.7969 408.193 70.6719 409.547 70.6719H411.812ZM419.438 57H424.703V76.8438L424.156 81H419.438V57ZM435.078 72.3594V72.6875C435.078 73.9688 434.948 75.1354 434.688 76.1875C434.427 77.2396 434.026 78.151 433.484 78.9219C432.943 79.6823 432.26 80.2708 431.438 80.6875C430.615 81.1042 429.641 81.3125 428.516 81.3125C427.495 81.3125 426.62 81.0938 425.891 80.6562C425.161 80.2083 424.552 79.5938 424.062 78.8125C423.573 78.0208 423.177 77.1094 422.875 76.0781C422.573 75.0365 422.333 73.9219 422.156 72.7344V72.3438C422.333 71.1667 422.573 70.0625 422.875 69.0312C423.177 67.9896 423.573 67.0781 424.062 66.2969C424.552 65.5052 425.156 64.8906 425.875 64.4531C426.604 64.0052 427.474 63.7812 428.484 63.7812C429.62 63.7812 430.599 63.9948 431.422 64.4219C432.255 64.849 432.943 65.4479 433.484 66.2188C434.026 66.9896 434.427 67.8958 434.688 68.9375C434.948 69.9792 435.078 71.1198 435.078 72.3594ZM429.812 72.6875V72.3594C429.812 71.7448 429.776 71.1667 429.703 70.625C429.63 70.0833 429.5 69.6042 429.312 69.1875C429.125 68.7708 428.859 68.4427 428.516 68.2031C428.172 67.9635 427.724 67.8438 427.172 67.8438C426.609 67.8438 426.135 67.9375 425.75 68.125C425.375 68.3125 425.073 68.5833 424.844 68.9375C424.625 69.2812 424.469 69.7083 424.375 70.2188C424.281 70.7188 424.24 71.2865 424.25 71.9219V73.1562C424.229 74.0208 424.307 74.7604 424.484 75.375C424.661 75.9896 424.969 76.4583 425.406 76.7812C425.844 77.1042 426.443 77.2656 427.203 77.2656C427.766 77.2656 428.219 77.1562 428.562 76.9375C428.917 76.7188 429.182 76.4062 429.359 76C429.536 75.5938 429.656 75.1094 429.719 74.5469C429.781 73.9844 429.812 73.3646 429.812 72.6875ZM442.984 64.0938V81H437.703V64.0938H442.984ZM437.391 59.7344C437.391 58.9844 437.661 58.3698 438.203 57.8906C438.745 57.4115 439.448 57.1719 440.312 57.1719C441.177 57.1719 441.88 57.4115 442.422 57.8906C442.964 58.3698 443.234 58.9844 443.234 59.7344C443.234 60.4844 442.964 61.099 442.422 61.5781C441.88 62.0573 441.177 62.2969 440.312 62.2969C439.448 62.2969 438.745 62.0573 438.203 61.5781C437.661 61.099 437.391 60.4844 437.391 59.7344ZM451.797 57V81H446.516V57H451.797ZM460.609 64.0938V81H455.328V64.0938H460.609ZM455.016 59.7344C455.016 58.9844 455.286 58.3698 455.828 57.8906C456.37 57.4115 457.073 57.1719 457.938 57.1719C458.802 57.1719 459.505 57.4115 460.047 57.8906C460.589 58.3698 460.859 58.9844 460.859 59.7344C460.859 60.4844 460.589 61.099 460.047 61.5781C459.505 62.0573 458.802 62.2969 457.938 62.2969C457.073 62.2969 456.37 62.0573 455.828 61.5781C455.286 61.099 455.016 60.4844 455.016 59.7344ZM472.766 64.0938V67.75H462.578V64.0938H472.766ZM464.719 59.8906H469.984V75.4844C469.984 75.9323 470.036 76.2812 470.141 76.5312C470.245 76.7708 470.422 76.9427 470.672 77.0469C470.932 77.1406 471.276 77.1875 471.703 77.1875C472.005 77.1875 472.255 77.1823 472.453 77.1719C472.651 77.151 472.839 77.125 473.016 77.0938V80.8594C472.568 81.0052 472.099 81.1146 471.609 81.1875C471.12 81.2708 470.599 81.3125 470.047 81.3125C468.922 81.3125 467.958 81.1354 467.156 80.7812C466.365 80.4271 465.76 79.8698 465.344 79.1094C464.927 78.349 464.719 77.3594 464.719 76.1406V59.8906ZM480.047 79.0156L484.422 64.0938H490.078L483.281 83.5156C483.135 83.9427 482.943 84.401 482.703 84.8906C482.464 85.3906 482.135 85.8646 481.719 86.3125C481.302 86.7604 480.766 87.125 480.109 87.4062C479.464 87.6875 478.661 87.8281 477.703 87.8281C477.193 87.8281 476.818 87.8021 476.578 87.75C476.349 87.7083 475.995 87.6302 475.516 87.5156V83.75C475.651 83.75 475.766 83.75 475.859 83.75C475.964 83.75 476.078 83.75 476.203 83.75C476.766 83.75 477.214 83.6927 477.547 83.5781C477.891 83.4635 478.151 83.2969 478.328 83.0781C478.516 82.8594 478.661 82.5938 478.766 82.2812L480.047 79.0156ZM478.938 64.0938L482.266 75.9219L482.844 81.5H479.312L473.297 64.0938H478.938Z" fill="#3F4254"/>
</svg>
