<svg xmlns="http://www.w3.org/2000/svg" width="1394" height="608" viewBox="0 0 1394 608" version="1.1"><path d="M 593.500 249.051 C 583.981 250.542, 571.891 256.910, 564.651 264.247 C 556.892 272.111, 553.612 278.245, 551.451 288.929 C 549.456 298.794, 549.943 307.490, 553.032 317.132 C 562.336 346.175, 599.538 360.150, 629.802 345.971 C 667.309 328.398, 669.279 275.856, 633.192 255.586 C 629.723 253.637, 624.548 251.347, 621.692 250.497 C 615.118 248.539, 601.298 247.830, 593.500 249.051 M 955 249.058 C 943.571 251.052, 932.417 258.523, 927.759 267.306 C 924.608 273.248, 924.589 285.719, 927.723 291.624 C 932.475 300.577, 942.489 305.865, 964.305 310.940 C 976.780 313.842, 982 317.029, 982 321.740 C 982 328.385, 976.963 331.011, 964.282 330.976 C 953.407 330.945, 948.586 329.865, 939.634 325.455 C 935.776 323.555, 932.251 322, 931.801 322 C 931.118 322, 923 338.120, 923 339.477 C 923 339.718, 924.960 341.064, 927.356 342.468 C 939.237 349.431, 959.580 353.198, 973.846 351.076 C 983.916 349.578, 993.903 344.914, 999.092 339.284 C 1004.745 333.151, 1006.357 328.902, 1006.405 320 C 1006.438 313.890, 1006.003 311.719, 1004.059 308.285 C 999.247 299.790, 989.611 294.432, 971.997 290.456 C 954.792 286.572, 950 283.982, 950 278.568 C 950 271.608, 955.537 268.618, 968.190 268.745 C 976.533 268.830, 984.942 270.853, 990.448 274.102 C 992.365 275.233, 994.369 275.890, 994.902 275.561 C 995.984 274.892, 1002.006 259.785, 1001.989 257.782 C 1001.976 256.292, 991.332 251.531, 984.682 250.041 C 977.879 248.516, 961.263 247.966, 955 249.058 M 44 300 L 44 350 56 350 L 68 350 68 300 L 68 250 56 250 L 44 250 44 300 M 285 300.031 L 285 350.062 297.250 349.781 L 309.500 349.500 309.681 332 L 309.863 314.500 332.431 314.231 L 355 313.962 355 303.981 L 355 294 332.559 294 L 310.118 294 309.809 281.998 L 309.500 269.996 335.250 269.998 L 361 270 361 260 L 361 250 323 250 L 285 250 285 300.031 M 424 299.982 L 424 350.025 460.750 349.762 L 497.500 349.500 497.786 339.750 L 498.072 330 473.548 330 L 449.023 330 448.761 290.250 L 448.500 250.500 436.250 250.219 L 424 249.938 424 299.982 M 712 250.509 C 712 251.087, 720.327 276.530, 735.890 323.500 L 744.504 349.500 757.260 349.780 C 771.891 350.101, 769.983 351.421, 774.283 338 C 781.497 315.484, 791.323 287.003, 791.870 287.024 C 792.217 287.037, 793.745 290.974, 795.267 295.774 C 796.789 300.573, 801.311 314.625, 805.317 327 L 812.601 349.500 824.910 349.782 C 838.376 350.090, 839.464 349.735, 840.564 344.681 C 840.944 342.931, 845.698 328, 851.127 311.500 C 864.319 271.409, 869.693 254.959, 870.480 252.250 C 871.133 250.006, 871.102 250, 859.317 250.010 L 847.500 250.020 836.500 283.467 L 825.500 316.914 823.817 312.207 C 822.333 308.055, 807.435 261.785, 804.835 253.250 L 803.845 250 792.559 250 L 781.273 250 777.734 260.250 C 775.787 265.887, 770.957 280.175, 767.001 292 C 763.044 303.825, 759.506 314.043, 759.138 314.707 C 758.770 315.371, 756.041 308.396, 753.074 299.207 C 750.107 290.018, 745.349 275.300, 742.501 266.500 L 737.323 250.500 724.662 250.220 C 717.698 250.066, 712 250.196, 712 250.509 M 1186.387 257.750 C 1184.471 262.012, 1182.063 267.300, 1181.036 269.500 C 1180.008 271.700, 1177.330 277.663, 1175.084 282.750 C 1166.734 301.662, 1162.737 310.633, 1160.493 315.500 C 1154.944 327.535, 1146 348.267, 1146 349.094 C 1146 349.593, 1151.595 350, 1158.433 350 C 1170.456 350, 1170.888 349.926, 1171.549 347.750 C 1171.926 346.512, 1173.802 341.856, 1175.718 337.402 L 1179.203 329.305 1194.851 328.656 C 1203.458 328.299, 1213.481 328.005, 1217.124 328.003 L 1223.749 328 1228.047 338.500 L 1232.345 349 1244.673 349 C 1251.453 349, 1257 348.788, 1257 348.529 C 1257 348.269, 1255.824 345.457, 1254.386 342.279 C 1251.302 335.461, 1247.586 327.172, 1230.504 289 C 1223.489 273.325, 1216.687 258.137, 1215.387 255.250 L 1213.025 250 1201.448 250 L 1189.870 250 1186.387 257.750 M 1315.458 251.250 C 1315.195 251.938, 1315.096 274.325, 1315.240 301 L 1315.500 349.500 1327.500 349.500 L 1339.500 349.500 1339.759 299.750 L 1340.019 250 1327.978 250 C 1319.267 250, 1315.805 250.346, 1315.458 251.250 M 598.872 270.008 C 590.564 271.428, 584.404 275.772, 579.214 283.868 C 575.926 288.996, 575.566 290.274, 575.184 298.153 C 574.813 305.798, 575.058 307.447, 577.280 312.301 C 582.668 324.070, 591.872 330, 604.749 330 C 614.264 330, 620.986 327.130, 626.621 320.662 C 632.295 314.148, 634.158 309.063, 634.158 300.084 C 634.158 288.611, 630.277 280.790, 621.479 274.535 C 617.175 271.475, 614.982 270.770, 606 269.555 C 604.625 269.369, 601.417 269.573, 598.872 270.008 M 171.438 273.868 C 168.654 274.818, 164.971 276.596, 163.253 277.820 L 160.130 280.044 159.815 276.772 L 159.500 273.500 148.500 273.500 L 137.500 273.500 137.238 310.933 C 137.032 340.216, 137.250 348.541, 138.238 349.168 C 139.844 350.188, 158.102 350.222, 159.696 349.209 C 160.553 348.664, 160.978 341.883, 161.196 325.295 C 161.529 299.918, 161.595 299.631, 168.270 294.648 C 171.913 291.928, 180.687 291.270, 184.820 293.407 C 190.927 296.565, 191.445 298.884, 192 325.500 L 192.500 349.500 204.308 349.782 L 216.116 350.064 215.808 322.282 C 215.514 295.754, 215.396 294.274, 213.201 289.500 C 210.161 282.891, 204.753 277.491, 198.142 274.465 C 191.484 271.417, 179.410 271.147, 171.438 273.868 M 1198.739 281.710 C 1197.319 285.444, 1194.152 293.337, 1191.701 299.250 L 1187.244 310 1201.622 310 C 1209.530 310, 1216 309.850, 1216 309.667 C 1216 309.485, 1213.943 304.422, 1211.429 298.417 C 1208.915 292.413, 1205.914 285.025, 1204.762 282 C 1203.609 278.975, 1202.363 276.144, 1201.993 275.710 C 1201.622 275.275, 1200.158 277.975, 1198.739 281.710" stroke="none" fill="#fbfbfb" fill-rule="evenodd"/><path d="M 120 305.500 L 120 589 693.500 589 L 1267 589 1267 305.500 L 1267 22 693.500 22 L 120 22 120 305.500 M 188 181 L 188 272 182.750 272.011 C 176.344 272.024, 168.783 274.216, 163.826 277.497 L 160.123 279.947 159.811 276.724 L 159.500 273.500 148.500 273.500 L 137.500 273.500 137.238 310.933 C 137.032 340.216, 137.250 348.541, 138.238 349.168 C 139.844 350.188, 158.102 350.222, 159.696 349.209 C 160.553 348.664, 160.978 341.883, 161.196 325.295 C 161.529 299.918, 161.595 299.631, 168.270 294.648 C 171.921 291.922, 180.687 291.270, 184.836 293.415 L 188 295.051 188 408.026 L 188 521 693.495 521 L 1198.990 521 1199.245 424.750 L 1199.500 328.500 1211.612 328.220 L 1223.724 327.941 1228.035 338.470 L 1232.345 349 1244.673 349 C 1251.453 349, 1257 348.788, 1257 348.529 C 1257 348.269, 1255.824 345.457, 1254.386 342.279 C 1251.302 335.461, 1247.586 327.172, 1230.504 289 C 1223.489 273.325, 1216.687 258.137, 1215.387 255.250 L 1213.025 250 1206.013 250 L 1199 250 1199 170 L 1199 90 693.500 90 L 188 90 188 181 M 1200.124 278.073 C 1199.494 279.881, 1199 287.604, 1199 295.649 L 1199 310 1207.500 310 C 1212.175 310, 1216 309.850, 1216 309.667 C 1216 309.485, 1213.943 304.422, 1211.429 298.417 C 1208.915 292.413, 1205.914 285.025, 1204.762 282 C 1201.985 274.714, 1201.452 274.263, 1200.124 278.073" stroke="none" fill="#3cc464" fill-rule="evenodd"/></svg>