<svg width="19" height="15" viewBox="0 0 19 15" fill="none" xmlns="http://www.w3.org/2000/svg">
<path opacity="0.4" fill-rule="evenodd" clip-rule="evenodd" d="M14.5195 2.2903C16.0134 3.44339 17.2854 5.13273 18.1988 7.24545C18.2671 7.40582 18.2671 7.59333 18.1988 7.74606C16.372 11.9715 13.1195 14.5 9.5 14.5H9.49146C5.88049 14.5 2.62805 11.9715 0.80122 7.74606C0.732927 7.59333 0.732927 7.40582 0.80122 7.24545C2.62805 3.01915 5.88049 0.5 9.49146 0.5H9.5C11.3098 0.5 13.0256 1.12788 14.5195 2.2903ZM6.08537 7.5C6.08537 9.36667 7.61341 10.8855 9.5 10.8855C11.378 10.8855 12.9061 9.36667 12.9061 7.5C12.9061 5.62485 11.378 4.10606 9.5 4.10606C7.61341 4.10606 6.08537 5.62485 6.08537 7.5Z" fill="#3F4254"/>
<path d="M11.6269 7.49719C11.6269 8.65961 10.6708 9.60992 9.50133 9.60992C8.32329 9.60992 7.36719 8.65961 7.36719 7.49719C7.36719 7.35295 7.38426 7.21804 7.40987 7.08228H7.45255C8.40011 7.08228 9.16841 6.33561 9.20255 5.40143C9.29646 5.38531 9.39889 5.37598 9.50133 5.37598C10.6708 5.37598 11.6269 6.32628 11.6269 7.49719" fill="#3F4254"/>
</svg>
