<svg width="29" height="29" viewBox="0 0 29 29" fill="none" xmlns="http://www.w3.org/2000/svg">
<path d="M24.0915 9.66651H25.3748C26.0157 9.66651 26.6304 9.92112 27.0836 10.3743C27.5368 10.8275 27.7915 11.4422 27.7915 12.0832V16.9165C27.7915 17.5574 27.5368 18.1721 27.0836 18.6253C26.6304 19.0786 26.0157 19.3332 25.3748 19.3332H24.0915C23.797 21.6692 22.66 23.8175 20.894 25.3748C19.128 26.9322 16.8544 27.7915 14.4998 27.7915V25.3748C16.4226 25.3748 18.2667 24.611 19.6263 23.2514C20.986 21.8917 21.7498 20.0477 21.7498 18.1248V10.8748C21.7498 8.95202 20.986 7.10795 19.6263 5.74832C18.2667 4.38868 16.4226 3.62484 14.4998 3.62484C12.577 3.62484 10.7329 4.38868 9.37327 5.74832C8.01363 7.10795 7.2498 8.95202 7.2498 10.8748V19.3332H3.6248C2.98386 19.3332 2.36917 19.0786 1.91596 18.6253C1.46274 18.1721 1.20813 17.5574 1.20813 16.9165V12.0832C1.20813 11.4422 1.46274 10.8275 1.91596 10.3743C2.36917 9.92112 2.98386 9.66651 3.6248 9.66651H4.90805C5.20292 7.33067 6.34002 5.18271 8.10599 3.62566C9.87196 2.0686 12.1454 1.20947 14.4998 1.20947C16.8542 1.20947 19.1276 2.0686 20.8936 3.62566C22.6596 5.18271 23.7967 7.33067 24.0915 9.66651ZM3.6248 12.0832V16.9165H4.83313V12.0832H3.6248ZM24.1665 12.0832V16.9165H25.3748V12.0832H24.1665ZM9.37646 19.0734L10.6573 17.024C11.8089 17.7455 13.1409 18.127 14.4998 18.1248C15.8587 18.127 17.1907 17.7455 18.3423 17.024L19.6231 19.0734C18.0877 20.0354 16.3117 20.5443 14.4998 20.5415C12.6878 20.5443 10.9119 20.0354 9.37646 19.0734Z" fill="white"/>
</svg>
